<svg width="265" height="73" viewBox="0 0 265 73" fill="none" xmlns="http://www.w3.org/2000/svg">
<path d="M62.8979 0H64.8635V73H62.8979V0Z" fill="#E6E6E6"/>
<path d="M83.7385 14.2985L80.1759 21.8603V14.2985H78.3255V25.4196H80.1759L83.7385 17.8655V25.4196H85.5889V14.2985H83.7385Z" fill="#E6E6E6"/>
<path d="M95.0098 25.4196V17.1552H93.167V20.6H89.6659V17.1552H87.8232V25.4196H89.6659V22.0742H93.167V25.4196H95.0098Z" fill="#E6E6E6"/>
<path d="M101.006 24.1059C100.622 24.1059 100.302 24.0295 100.047 23.8767C99.7906 23.724 99.5884 23.5228 99.4399 23.2733C99.2864 23.0238 99.1763 22.7387 99.1098 22.4179C99.0484 22.092 99.0177 21.761 99.0177 21.4249V21.1576C99.0177 20.8266 99.0484 20.5007 99.1098 20.1799C99.1763 19.8591 99.2864 19.5739 99.4399 19.3244C99.5935 19.0749 99.7957 18.8738 100.047 18.721C100.302 18.5632 100.622 18.4842 101.006 18.4842C101.257 18.4842 101.49 18.5275 101.705 18.6141C101.925 18.7006 102.114 18.8178 102.273 18.9654C102.427 19.1131 102.544 19.2862 102.626 19.4848C102.713 19.6834 102.757 19.8947 102.757 20.1188H104.484C104.489 19.6605 104.405 19.2404 104.231 18.8585C104.062 18.4766 103.824 18.1482 103.517 17.8732C103.21 17.5982 102.841 17.3843 102.411 17.2316C101.986 17.0788 101.523 17.0024 101.022 17.0024C100.387 17.0024 99.829 17.1145 99.3478 17.3385C98.8718 17.5575 98.4725 17.8554 98.15 18.2322C97.8276 18.609 97.5844 19.0495 97.4206 19.5536C97.262 20.0577 97.1826 20.5924 97.1826 21.1576V21.4249C97.1826 21.9952 97.2645 22.5324 97.4283 23.0366C97.5921 23.5356 97.8327 23.9735 98.15 24.3503C98.4725 24.7271 98.8718 25.0276 99.3478 25.2516C99.829 25.4706 100.389 25.58 101.029 25.58C101.49 25.58 101.928 25.5062 102.342 25.3585C102.762 25.2058 103.133 24.9995 103.456 24.7399C103.773 24.4802 104.024 24.1746 104.208 23.8233C104.397 23.4668 104.489 23.0875 104.484 22.6852H102.757C102.757 22.894 102.708 23.0849 102.611 23.2581C102.519 23.4312 102.393 23.5814 102.235 23.7087C102.071 23.836 101.882 23.9353 101.667 24.0066C101.457 24.0728 101.237 24.1059 101.006 24.1059Z" fill="#E6E6E6"/>
<path d="M114.696 18.6217V17.1552H106.396V18.6217H109.606V25.4196H111.448V18.6217H114.696Z" fill="#E6E6E6"/>
<path d="M121.506 17.1552L117.99 22.7769V17.1552H116.155V25.4196H117.99L121.506 19.8056V25.4196H123.341V17.1552H121.506Z" fill="#E6E6E6"/>
<path d="M133.584 18.6217V17.1552H125.284V18.6217H128.493V25.4196H130.336V18.6217H133.584Z" fill="#E6E6E6"/>
<path d="M136.21 28.7575C136.614 28.7575 136.967 28.6862 137.269 28.5436C137.571 28.4061 137.832 28.233 138.052 28.0242C138.273 27.8206 138.454 27.5965 138.598 27.3521C138.746 27.1128 138.869 26.8862 138.966 26.6723L143.181 17.1552H141.147L139.143 22.2269L138.797 23.1129L138.513 22.204L136.448 17.1552H134.428L137.968 25.053L137.446 26.0383C137.39 26.1504 137.328 26.2573 137.262 26.3591C137.2 26.461 137.118 26.5781 137.016 26.7105C136.908 26.8429 136.783 26.96 136.64 27.0618C136.496 27.1688 136.335 27.2222 136.156 27.2222C136.074 27.2222 135.967 27.2171 135.834 27.207C135.706 27.2019 135.59 27.1968 135.488 27.1917L135.235 28.62C135.383 28.6557 135.539 28.6862 135.703 28.7117C135.867 28.7422 136.036 28.7575 136.21 28.7575Z" fill="#E6E6E6"/>
<path d="M152.472 18.6217V17.1552H144.172V18.6217H147.381V25.4196H149.224V18.6217H152.472Z" fill="#E6E6E6"/>
<path d="M166.553 22.1429L169.164 25.4196H171.559L168.035 21.1347L171.298 17.1552H169.018L166.423 20.4549H165.263V17.1552H163.428V25.4196H165.263V22.1429H166.553Z" fill="#E6E6E6"/>
<path d="M172.603 21.211V21.3714C172.603 21.9774 172.69 22.535 172.864 23.0442C173.038 23.5534 173.292 23.9964 173.624 24.3732C173.952 24.75 174.356 25.0454 174.838 25.2592C175.319 25.4731 175.864 25.58 176.473 25.58C177.077 25.58 177.617 25.4731 178.093 25.2592C178.574 25.0454 178.979 24.75 179.306 24.3732C179.634 23.9964 179.885 23.5534 180.059 23.0442C180.233 22.535 180.32 21.9774 180.32 21.3714V21.211C180.32 20.6102 180.233 20.0551 180.059 19.5459C179.885 19.0316 179.634 18.5861 179.306 18.2093C178.973 17.8325 178.567 17.5371 178.085 17.3232C177.609 17.1094 177.067 17.0024 176.458 17.0024C175.849 17.0024 175.306 17.1094 174.83 17.3232C174.354 17.5371 173.952 17.8325 173.624 18.2093C173.292 18.5861 173.038 19.0316 172.864 19.5459C172.69 20.0551 172.603 20.6102 172.603 21.211ZM174.438 21.3714V21.211C174.438 20.8495 174.477 20.5032 174.554 20.1723C174.635 19.8413 174.758 19.551 174.922 19.3015C175.091 19.052 175.301 18.8534 175.552 18.7057C175.808 18.5581 176.11 18.4842 176.458 18.4842C176.811 18.4842 177.113 18.5581 177.364 18.7057C177.62 18.8534 177.829 19.052 177.993 19.3015C178.157 19.551 178.28 19.8413 178.362 20.1723C178.444 20.5032 178.485 20.8495 178.485 21.211V21.3714C178.485 21.7432 178.444 22.0945 178.362 22.4255C178.285 22.7565 178.165 23.0467 178.001 23.2962C177.837 23.5458 177.627 23.7444 177.371 23.892C177.115 24.0346 176.816 24.1059 176.473 24.1059C176.12 24.1059 175.815 24.0346 175.559 23.892C175.303 23.7444 175.091 23.5458 174.922 23.2962C174.758 23.0467 174.635 22.7565 174.554 22.4255C174.477 22.0945 174.438 21.7432 174.438 21.3714Z" fill="#E6E6E6"/>
<path d="M186.001 24.1059C185.617 24.1059 185.298 24.0295 185.042 23.8767C184.786 23.724 184.583 23.5228 184.435 23.2733C184.281 23.0238 184.171 22.7387 184.105 22.4179C184.043 22.092 184.013 21.761 184.013 21.4249V21.1576C184.013 20.8266 184.043 20.5007 184.105 20.1799C184.171 19.8591 184.281 19.5739 184.435 19.3244C184.589 19.0749 184.791 18.8738 185.042 18.721C185.298 18.5632 185.617 18.4842 186.001 18.4842C186.252 18.4842 186.485 18.5275 186.7 18.6141C186.92 18.7006 187.11 18.8178 187.268 18.9654C187.422 19.1131 187.54 19.2862 187.621 19.4848C187.708 19.6834 187.752 19.8947 187.752 20.1188H189.479C189.485 19.6605 189.4 19.2404 189.226 18.8585C189.057 18.4766 188.819 18.1482 188.512 17.8732C188.205 17.5982 187.836 17.3843 187.406 17.2316C186.982 17.0788 186.518 17.0024 186.017 17.0024C185.382 17.0024 184.824 17.1145 184.343 17.3385C183.867 17.5575 183.468 17.8554 183.145 18.2322C182.823 18.609 182.58 19.0495 182.416 19.5536C182.257 20.0577 182.178 20.5924 182.178 21.1576V21.4249C182.178 21.9952 182.26 22.5324 182.423 23.0366C182.587 23.5356 182.828 23.9735 183.145 24.3503C183.468 24.7271 183.867 25.0276 184.343 25.2516C184.824 25.4706 185.385 25.58 186.024 25.58C186.485 25.58 186.923 25.5062 187.337 25.3585C187.757 25.2058 188.128 24.9995 188.451 24.7399C188.768 24.4802 189.019 24.1746 189.203 23.8233C189.392 23.4668 189.485 23.0875 189.479 22.6852H187.752C187.752 22.894 187.703 23.0849 187.606 23.2581C187.514 23.4312 187.389 23.5814 187.23 23.7087C187.066 23.836 186.877 23.9353 186.662 24.0066C186.452 24.0728 186.232 24.1059 186.001 24.1059Z" fill="#E6E6E6"/>
<path d="M195.299 23.1664L193.894 17.1552H191.583V25.4196H193.272V20.6L194.677 25.4196H195.921L197.319 20.6076V25.4196H199.016V17.1552H196.72L195.299 23.1664Z" fill="#E6E6E6"/>
<path d="M206.502 17.1552L202.985 22.7769V17.1552H201.15V25.4196H202.985L206.502 19.8056V25.4196H208.337V17.1552H206.502Z" fill="#E6E6E6"/>
<path d="M217.949 25.4196V17.1552H216.107V21.1194C215.984 21.1499 215.861 21.1779 215.738 21.2034C215.615 21.2238 215.49 21.2416 215.362 21.2569C215.178 21.2823 214.988 21.3027 214.794 21.318C214.604 21.3282 214.407 21.3333 214.203 21.3333C213.885 21.3333 213.609 21.3002 213.373 21.234C213.143 21.1678 212.951 21.0659 212.797 20.9284C212.654 20.796 212.547 20.628 212.475 20.4243C212.403 20.2155 212.368 19.9635 212.368 19.6681V17.1552H210.532V19.6681C210.532 20.2079 210.617 20.6764 210.786 21.0736C210.96 21.4656 211.206 21.789 211.523 22.0436C211.84 22.3033 212.224 22.4968 212.675 22.6241C213.13 22.7514 213.639 22.815 214.203 22.815C214.535 22.815 214.86 22.7972 215.178 22.7616C215.495 22.7259 215.805 22.675 216.107 22.6088V25.4196H217.949Z" fill="#E6E6E6"/>
<path d="M224.038 25.5724C224.847 25.5724 225.535 25.4146 226.103 25.0988C226.677 24.7831 227.102 24.4267 227.378 24.0295L226.395 23.0824C226.139 23.4083 225.814 23.6603 225.42 23.8386C225.026 24.0117 224.601 24.0982 224.146 24.0982C223.813 24.0982 223.506 24.0422 223.224 23.9302C222.948 23.8182 222.707 23.6603 222.502 23.4566C222.298 23.2631 222.136 23.0442 222.019 22.7998C221.901 22.5554 221.814 22.2524 221.758 21.8908V21.8526H227.516V21.0659C227.516 20.4752 227.437 19.9304 227.278 19.4314C227.119 18.9323 226.884 18.5021 226.572 18.1405C226.26 17.7841 225.873 17.5066 225.412 17.308C224.952 17.1043 224.422 17.0024 223.823 17.0024C223.286 17.0024 222.779 17.1043 222.303 17.308C221.832 17.5066 221.417 17.7917 221.059 18.1634C220.701 18.5352 220.419 18.9833 220.214 19.5077C220.01 20.0322 219.907 20.6178 219.907 21.2645V21.5777C219.907 22.1429 220.005 22.6699 220.199 23.1588C220.399 23.6425 220.68 24.0626 221.044 24.4191C221.407 24.7806 221.842 25.0632 222.349 25.2669C222.861 25.4706 223.424 25.5724 224.038 25.5724ZM223.815 18.4842C224.122 18.4842 224.391 18.5377 224.622 18.6446C224.857 18.7465 225.052 18.884 225.205 19.0571C225.364 19.2353 225.487 19.4441 225.574 19.6834C225.661 19.9177 225.704 20.1544 225.704 20.3938V20.516H221.796C221.852 20.2003 221.939 19.9177 222.057 19.6681C222.175 19.4186 222.321 19.2048 222.495 19.0265C222.669 18.8534 222.866 18.721 223.086 18.6294C223.311 18.5326 223.554 18.4842 223.815 18.4842Z" fill="#E6E6E6"/>
<path d="M233.221 24.1059C232.837 24.1059 232.517 24.0295 232.261 23.8767C232.005 23.724 231.803 23.5228 231.655 23.2733C231.501 23.0238 231.391 22.7387 231.324 22.4179C231.263 22.092 231.232 21.761 231.232 21.4249V21.1576C231.232 20.8266 231.263 20.5007 231.324 20.1799C231.391 19.8591 231.501 19.5739 231.655 19.3244C231.808 19.0749 232.01 18.8738 232.261 18.721C232.517 18.5632 232.837 18.4842 233.221 18.4842C233.472 18.4842 233.705 18.5275 233.92 18.6141C234.14 18.7006 234.329 18.8178 234.488 18.9654C234.641 19.1131 234.759 19.2862 234.841 19.4848C234.928 19.6834 234.971 19.8947 234.971 20.1188H236.699C236.704 19.6605 236.62 19.2404 236.446 18.8585C236.277 18.4766 236.039 18.1482 235.732 17.8732C235.424 17.5982 235.056 17.3843 234.626 17.2316C234.201 17.0788 233.738 17.0024 233.236 17.0024C232.602 17.0024 232.044 17.1145 231.562 17.3385C231.086 17.5575 230.687 17.8554 230.365 18.2322C230.042 18.609 229.799 19.0495 229.635 19.5536C229.477 20.0577 229.397 20.5924 229.397 21.1576V21.4249C229.397 21.9952 229.479 22.5324 229.643 23.0366C229.807 23.5356 230.047 23.9735 230.365 24.3503C230.687 24.7271 231.086 25.0276 231.562 25.2516C232.044 25.4706 232.604 25.58 233.244 25.58C233.705 25.58 234.142 25.5062 234.557 25.3585C234.977 25.2058 235.348 24.9995 235.67 24.7399C235.988 24.4802 236.238 24.1746 236.423 23.8233C236.612 23.4668 236.704 23.0875 236.699 22.6852H234.971C234.971 22.894 234.923 23.0849 234.826 23.2581C234.733 23.4312 234.608 23.5814 234.449 23.7087C234.286 23.836 234.096 23.9353 233.881 24.0066C233.671 24.0728 233.451 24.1059 233.221 24.1059Z" fill="#E6E6E6"/>
<path d="M242.104 22.1429L244.715 25.4196H247.11L243.586 21.1347L246.849 17.1552H244.569L241.974 20.4549H240.814V17.1552H238.979V25.4196H240.814V22.1429H242.104Z" fill="#E6E6E6"/>
<path d="M248.155 21.211V21.3714C248.155 21.9774 248.242 22.535 248.416 23.0442C248.59 23.5534 248.843 23.9964 249.176 24.3732C249.503 24.75 249.908 25.0454 250.389 25.2592C250.87 25.4731 251.415 25.58 252.024 25.58C252.628 25.58 253.168 25.4731 253.644 25.2592C254.125 25.0454 254.53 24.75 254.857 24.3732C255.185 23.9964 255.436 23.5534 255.61 23.0442C255.784 22.535 255.871 21.9774 255.871 21.3714V21.211C255.871 20.6102 255.784 20.0551 255.61 19.5459C255.436 19.0316 255.185 18.5861 254.857 18.2093C254.525 17.8325 254.118 17.5371 253.637 17.3232C253.161 17.1094 252.618 17.0024 252.009 17.0024C251.4 17.0024 250.857 17.1094 250.381 17.3232C249.905 17.5371 249.503 17.8325 249.176 18.2093C248.843 18.5861 248.59 19.0316 248.416 19.5459C248.242 20.0551 248.155 20.6102 248.155 21.211ZM249.99 21.3714V21.211C249.99 20.8495 250.028 20.5032 250.105 20.1723C250.187 19.8413 250.309 19.551 250.473 19.3015C250.642 19.052 250.852 18.8534 251.103 18.7057C251.359 18.5581 251.661 18.4842 252.009 18.4842C252.362 18.4842 252.664 18.5581 252.915 18.7057C253.171 18.8534 253.381 19.052 253.544 19.3015C253.708 19.551 253.831 19.8413 253.913 20.1723C253.995 20.5032 254.036 20.8495 254.036 21.211V21.3714C254.036 21.7432 253.995 22.0945 253.913 22.4255C253.836 22.7565 253.716 23.0467 253.552 23.2962C253.388 23.5458 253.178 23.7444 252.923 23.892C252.667 24.0346 252.367 24.1059 252.024 24.1059C251.671 24.1059 251.366 24.0346 251.111 23.892C250.855 23.7444 250.642 23.5458 250.473 23.2962C250.309 23.0467 250.187 22.7565 250.105 22.4255C250.028 22.0945 249.99 21.7432 249.99 21.3714Z" fill="#E6E6E6"/>
<path d="M263.165 17.1552L259.648 22.7769V17.1552H257.813V25.4196H259.648L263.165 19.8056V25.4196H265V17.1552H263.165ZM263.81 13.7715H262.436C262.436 13.9141 262.415 14.0516 262.374 14.184C262.333 14.3113 262.267 14.4259 262.174 14.5277C262.087 14.6244 261.975 14.7034 261.837 14.7645C261.698 14.8205 261.532 14.8485 261.338 14.8485C261.138 14.8485 260.966 14.8205 260.823 14.7645C260.685 14.7034 260.572 14.6244 260.485 14.5277C260.398 14.4259 260.332 14.3113 260.286 14.184C260.245 14.0516 260.224 13.9141 260.224 13.7715H258.85C258.85 14.0923 258.909 14.3851 259.027 14.6499C259.144 14.9147 259.311 15.1413 259.526 15.3297C259.741 15.5181 259.999 15.6658 260.301 15.7727C260.608 15.8745 260.954 15.9255 261.338 15.9255C261.716 15.9255 262.057 15.8745 262.359 15.7727C262.666 15.6658 262.927 15.5181 263.142 15.3297C263.357 15.1413 263.521 14.9147 263.633 14.6499C263.751 14.3851 263.81 14.0923 263.81 13.7715Z" fill="#E6E6E6"/>
<path d="M85.5658 42.3661V34.1016H78.3793V42.3661H80.222V35.5911H83.7308V42.3661H85.5658Z" fill="#E6E6E6"/>
<path d="M87.6082 38.1575V38.3179C87.6082 38.9238 87.6952 39.4814 87.8692 39.9906C88.0433 40.4998 88.2966 40.9428 88.6294 41.3197C88.9569 41.6965 89.3613 41.9918 89.8425 42.2057C90.3236 42.4195 90.8688 42.5265 91.4779 42.5265C92.0819 42.5265 92.6219 42.4195 93.0979 42.2057C93.5791 41.9918 93.9835 41.6965 94.3111 41.3197C94.6386 40.9428 94.8895 40.4998 95.0635 39.9906C95.2375 39.4814 95.3245 38.9238 95.3245 38.3179V38.1575C95.3245 37.5566 95.2375 37.0016 95.0635 36.4924C94.8895 35.9781 94.6386 35.5325 94.3111 35.1557C93.9783 34.7789 93.5714 34.4835 93.0903 34.2697C92.6142 34.0558 92.0716 33.9489 91.4625 33.9489C90.8534 33.9489 90.3108 34.0558 89.8348 34.2697C89.3588 34.4835 88.9569 34.7789 88.6294 35.1557C88.2966 35.5325 88.0433 35.9781 87.8692 36.4924C87.6952 37.0016 87.6082 37.5566 87.6082 38.1575ZM89.4432 38.3179V38.1575C89.4432 37.7959 89.4816 37.4497 89.5584 37.1187C89.6403 36.7877 89.7631 36.4975 89.9269 36.2479C90.0958 35.9984 90.3057 35.7998 90.5565 35.6522C90.8125 35.5045 91.1145 35.4307 91.4625 35.4307C91.8157 35.4307 92.1177 35.5045 92.3685 35.6522C92.6245 35.7998 92.8343 35.9984 92.9981 36.2479C93.1619 36.4975 93.2848 36.7877 93.3667 37.1187C93.4486 37.4497 93.4895 37.7959 93.4895 38.1575V38.3179C93.4895 38.6896 93.4486 39.0409 93.3667 39.3719C93.2899 39.7029 93.1696 39.9932 93.0058 40.2427C92.842 40.4922 92.6321 40.6908 92.3762 40.8385C92.1203 40.981 91.8208 41.0523 91.4779 41.0523C91.1247 41.0523 90.8201 40.981 90.5642 40.8385C90.3083 40.6908 90.0958 40.4922 89.9269 40.2427C89.7631 39.9932 89.6403 39.7029 89.5584 39.3719C89.4816 39.0409 89.4432 38.6896 89.4432 38.3179Z" fill="#E6E6E6"/>
<path d="M97.3515 40.8919H96.5223L96.6759 44.8179H98.3804V42.3661H103.724V44.8179H105.406L105.559 40.8919H104.423V34.1016H98.6721L98.5954 37.027C98.5749 37.5464 98.5467 38.0302 98.5109 38.4783C98.4751 38.9213 98.4162 39.3134 98.3343 39.6545C98.2473 39.9957 98.127 40.2758 97.9734 40.4947C97.8199 40.7086 97.6126 40.841 97.3515 40.8919ZM100.43 37.027L100.469 35.6827H102.588V40.8919H99.7471C99.8443 40.6933 99.9262 40.4744 99.9928 40.235C100.064 39.9957 100.126 39.7411 100.177 39.4712C100.238 39.1148 100.29 38.7329 100.331 38.3255C100.372 37.9181 100.405 37.4853 100.43 37.027Z" fill="#E6E6E6"/>
<path d="M113.867 35.5911V34.1016H106.872V42.3661H108.707V35.5911H113.867Z" fill="#E6E6E6"/>
<path d="M115.94 38.1575V38.3179C115.94 38.9238 116.027 39.4814 116.201 39.9906C116.375 40.4998 116.628 40.9428 116.961 41.3197C117.289 41.6965 117.693 41.9918 118.174 42.2057C118.655 42.4195 119.2 42.5265 119.81 42.5265C120.414 42.5265 120.954 42.4195 121.43 42.2057C121.911 41.9918 122.315 41.6965 122.643 41.3197C122.97 40.9428 123.221 40.4998 123.395 39.9906C123.569 39.4814 123.656 38.9238 123.656 38.3179V38.1575C123.656 37.5566 123.569 37.0016 123.395 36.4924C123.221 35.9781 122.97 35.5325 122.643 35.1557C122.31 34.7789 121.903 34.4835 121.422 34.2697C120.946 34.0558 120.403 33.9489 119.794 33.9489C119.185 33.9489 118.643 34.0558 118.167 34.2697C117.69 34.4835 117.289 34.7789 116.961 35.1557C116.628 35.5325 116.375 35.9781 116.201 36.4924C116.027 37.0016 115.94 37.5566 115.94 38.1575ZM117.775 38.3179V38.1575C117.775 37.7959 117.813 37.4497 117.89 37.1187C117.972 36.7877 118.095 36.4975 118.259 36.2479C118.428 35.9984 118.637 35.7998 118.888 35.6522C119.144 35.5045 119.446 35.4307 119.794 35.4307C120.147 35.4307 120.449 35.5045 120.7 35.6522C120.956 35.7998 121.166 35.9984 121.33 36.2479C121.494 36.4975 121.616 36.7877 121.698 37.1187C121.78 37.4497 121.821 37.7959 121.821 38.1575V38.3179C121.821 38.6896 121.78 39.0409 121.698 39.3719C121.622 39.7029 121.501 39.9932 121.338 40.2427C121.174 40.4922 120.964 40.6908 120.708 40.8385C120.452 40.981 120.153 41.0523 119.81 41.0523C119.456 41.0523 119.152 40.981 118.896 40.8385C118.64 40.6908 118.428 40.4922 118.259 40.2427C118.095 39.9932 117.972 39.7029 117.89 39.3719C117.813 39.0409 117.775 38.6896 117.775 38.3179Z" fill="#E6E6E6"/>
<path d="M133.584 35.5681V34.1016H125.284V35.5681H128.493V42.3661H130.336V35.5681H133.584Z" fill="#E6E6E6"/>
<path d="M134.828 38.1575V38.3179C134.828 38.9238 134.915 39.4814 135.089 39.9906C135.263 40.4998 135.516 40.9428 135.849 41.3197C136.176 41.6965 136.581 41.9918 137.062 42.2057C137.543 42.4195 138.088 42.5265 138.697 42.5265C139.301 42.5265 139.841 42.4195 140.317 42.2057C140.799 41.9918 141.203 41.6965 141.531 41.3197C141.858 40.9428 142.109 40.4998 142.283 39.9906C142.457 39.4814 142.544 38.9238 142.544 38.3179V38.1575C142.544 37.5566 142.457 37.0016 142.283 36.4924C142.109 35.9781 141.858 35.5325 141.531 35.1557C141.198 34.7789 140.791 34.4835 140.31 34.2697C139.834 34.0558 139.291 33.9489 138.682 33.9489C138.073 33.9489 137.53 34.0558 137.054 34.2697C136.578 34.4835 136.176 34.7789 135.849 35.1557C135.516 35.5325 135.263 35.9781 135.089 36.4924C134.915 37.0016 134.828 37.5566 134.828 38.1575ZM136.663 38.3179V38.1575C136.663 37.7959 136.701 37.4497 136.778 37.1187C136.86 36.7877 136.983 36.4975 137.146 36.2479C137.315 35.9984 137.525 35.7998 137.776 35.6522C138.032 35.5045 138.334 35.4307 138.682 35.4307C139.035 35.4307 139.337 35.5045 139.588 35.6522C139.844 35.7998 140.054 35.9984 140.218 36.2479C140.381 36.4975 140.504 36.7877 140.586 37.1187C140.668 37.4497 140.709 37.7959 140.709 38.1575V38.3179C140.709 38.6896 140.668 39.0409 140.586 39.3719C140.509 39.7029 140.389 39.9932 140.225 40.2427C140.062 40.4922 139.852 40.6908 139.596 40.8385C139.34 40.981 139.04 41.0523 138.697 41.0523C138.344 41.0523 138.04 40.981 137.784 40.8385C137.528 40.6908 137.315 40.4922 137.146 40.2427C136.983 39.9932 136.86 39.7029 136.778 39.3719C136.701 39.0409 136.663 38.6896 136.663 38.3179Z" fill="#E6E6E6"/>
<path d="M144.563 42.3661H148.464C148.981 42.3661 149.441 42.3177 149.846 42.2209C150.255 42.1191 150.601 41.9689 150.882 41.7703C151.164 41.5768 151.379 41.3349 151.527 41.0447C151.681 40.7493 151.758 40.4056 151.758 40.0135C151.758 39.7895 151.719 39.5782 151.642 39.3796C151.571 39.181 151.461 38.9977 151.312 38.8296C151.164 38.6718 150.985 38.5343 150.775 38.4172C150.57 38.295 150.33 38.2008 150.053 38.1346L149.976 38.1193C150.161 38.0531 150.33 37.9767 150.483 37.8901C150.637 37.7985 150.77 37.6992 150.882 37.5923C151.051 37.4293 151.179 37.246 151.266 37.0423C151.353 36.8386 151.397 36.6222 151.397 36.3931C151.397 36.001 151.315 35.6624 151.151 35.3772C150.992 35.0869 150.762 34.8476 150.46 34.6592C150.158 34.4759 149.792 34.3384 149.362 34.2468C148.937 34.15 148.461 34.1016 147.934 34.1016H144.563V42.3661ZM146.398 38.8449H148.464C148.72 38.8449 148.94 38.8704 149.124 38.9213C149.313 38.9722 149.467 39.0435 149.585 39.1352C149.697 39.2217 149.782 39.3287 149.838 39.456C149.894 39.5782 149.923 39.7182 149.923 39.876C149.923 40.039 149.894 40.1841 149.838 40.3114C149.782 40.4387 149.697 40.5457 149.585 40.6322C149.467 40.7188 149.313 40.7875 149.124 40.8385C148.94 40.8843 148.72 40.9072 148.464 40.9072H146.398V38.8449ZM146.398 37.5311V35.5681H147.934C148.21 35.5681 148.454 35.5911 148.663 35.6369C148.873 35.6776 149.042 35.7413 149.17 35.8278C149.303 35.9144 149.4 36.0213 149.462 36.1486C149.528 36.2709 149.562 36.416 149.562 36.584C149.562 36.7215 149.536 36.8463 149.485 36.9583C149.434 37.0652 149.357 37.1569 149.255 37.2333C149.127 37.3351 148.958 37.4115 148.748 37.4624C148.538 37.5082 148.29 37.5311 148.003 37.5311H146.398Z" fill="#E6E6E6"/>
<path d="M157.109 39.0893L159.72 42.3661H162.115L158.591 38.0811L161.854 34.1016H159.574L156.979 37.4013H155.819V34.1016H153.984V42.3661H155.819V39.0893H157.109Z" fill="#E6E6E6"/>
<path d="M168.726 34.1016L165.209 39.7233V34.1016H163.374V42.3661H165.209L168.726 36.7521V42.3661H170.561V34.1016H168.726Z" fill="#E6E6E6"/>
<path d="M187.614 34.1016L184.097 39.7233V34.1016H182.262V42.3661H184.097L187.614 36.7521V42.3661H189.449V34.1016H187.614Z" fill="#E6E6E6"/>
<path d="M195.299 40.1128L193.894 34.1016H191.583V42.3661H193.272V37.5464L194.677 42.3661H195.921L197.319 37.5541V42.3661H199.016V34.1016H196.72L195.299 40.1128Z" fill="#E6E6E6"/>
<path d="M203.561 41.2662C203.561 41.6175 203.676 41.9154 203.906 42.1598C204.142 42.3992 204.469 42.5188 204.889 42.5188C205.304 42.5188 205.629 42.3992 205.864 42.1598C206.105 41.9205 206.225 41.6226 206.225 41.2662C206.225 40.9097 206.107 40.6093 205.872 40.3649C205.636 40.1154 205.309 39.9906 204.889 39.9906C204.464 39.9906 204.137 40.1154 203.906 40.3649C203.676 40.6144 203.561 40.9148 203.561 41.2662Z" fill="#E6E6E6"/>
<path d="M83.7385 48.1914L80.1759 55.7531V48.1914H78.3255V59.3125H80.1759L83.7385 51.7584V59.3125H85.5889V48.1914H83.7385Z" fill="#E6E6E6"/>
<path d="M90.2341 58.2126C90.2341 58.564 90.3492 58.8619 90.5796 59.1063C90.815 59.3456 91.1426 59.4653 91.5623 59.4653C91.977 59.4653 92.302 59.3456 92.5374 59.1063C92.778 58.8669 92.8983 58.5691 92.8983 58.2126C92.8983 57.8562 92.7806 57.5557 92.5451 57.3113C92.3097 57.0618 91.9821 56.937 91.5623 56.937C91.1375 56.937 90.8099 57.0618 90.5796 57.3113C90.3492 57.5608 90.2341 57.8613 90.2341 58.2126Z" fill="#E6E6E6"/>
<path d="M99.5321 48.1914H97.244V59.3125H98.9716V55.5393L98.8718 50.7578L100.43 55.883H101.39L103.11 50.5745L103.003 55.5393V59.3125H104.738V48.1914H102.442L100.914 52.95L99.5321 48.1914Z" fill="#E6E6E6"/>
<path d="M112.139 59.3125H114.013V59.1827C113.91 58.9688 113.831 58.7142 113.775 58.4188C113.724 58.1184 113.698 57.7823 113.698 57.4106V53.7367C113.698 53.2682 113.611 52.8558 113.437 52.4993C113.263 52.1378 113.022 51.8399 112.715 51.6056C112.408 51.3714 112.042 51.1957 111.617 51.0786C111.197 50.9564 110.744 50.8953 110.258 50.8953C109.716 50.8953 109.232 50.9666 108.807 51.1092C108.387 51.2467 108.032 51.4351 107.74 51.6744C107.448 51.9086 107.225 52.1785 107.072 52.484C106.918 52.7896 106.839 53.1078 106.834 53.4388H108.677C108.677 53.2809 108.705 53.1333 108.761 52.9958C108.822 52.8532 108.915 52.7335 109.037 52.6368C109.16 52.5299 109.314 52.4458 109.498 52.3847C109.687 52.3236 109.908 52.2931 110.158 52.2931C110.435 52.2931 110.678 52.3287 110.888 52.4C111.103 52.4662 111.284 52.563 111.433 52.6903C111.571 52.8176 111.676 52.9678 111.748 53.1409C111.825 53.314 111.863 53.5075 111.863 53.7214V54.279H110.527C109.928 54.279 109.391 54.335 108.915 54.447C108.444 54.559 108.047 54.722 107.724 54.9359C107.376 55.165 107.11 55.4553 106.926 55.8066C106.747 56.1529 106.657 56.5526 106.657 57.0058C106.657 57.3571 106.726 57.6856 106.865 57.9911C107.008 58.2915 107.205 58.5487 107.456 58.7626C107.712 58.9815 108.016 59.1546 108.369 59.2819C108.728 59.4042 109.122 59.4653 109.552 59.4653C109.818 59.4653 110.066 59.4398 110.297 59.3889C110.527 59.338 110.742 59.2667 110.942 59.175C111.141 59.0884 111.32 58.9866 111.479 58.8695C111.643 58.7473 111.789 58.62 111.917 58.4876C111.942 58.6454 111.97 58.7982 112.001 58.9459C112.037 59.0885 112.083 59.2107 112.139 59.3125ZM109.905 57.9987C109.67 57.9987 109.465 57.9707 109.291 57.9147C109.117 57.8536 108.971 57.7721 108.853 57.6703C108.735 57.5685 108.646 57.4463 108.584 57.3037C108.523 57.156 108.492 56.9982 108.492 56.8301C108.492 56.6264 108.528 56.4431 108.6 56.2802C108.677 56.1172 108.792 55.9772 108.945 55.8601C109.119 55.7226 109.352 55.6182 109.644 55.5469C109.936 55.4705 110.281 55.4323 110.68 55.4323H111.863V56.96C111.796 57.0924 111.702 57.2197 111.579 57.3419C111.456 57.4641 111.31 57.5736 111.141 57.6703C110.972 57.7671 110.783 57.846 110.573 57.9071C110.368 57.9682 110.146 57.9987 109.905 57.9987Z" fill="#E6E6E6"/>
<path d="M119.894 57.9987C119.51 57.9987 119.19 57.9224 118.934 57.7696C118.678 57.6168 118.476 57.4157 118.328 57.1662C118.174 56.9167 118.064 56.6315 117.998 56.3107C117.936 55.9848 117.905 55.6538 117.905 55.3178V55.0504C117.905 54.7194 117.936 54.3936 117.998 54.0728C118.064 53.752 118.174 53.4668 118.328 53.2173C118.481 52.9678 118.683 52.7666 118.934 52.6139C119.19 52.456 119.51 52.3771 119.894 52.3771C120.145 52.3771 120.378 52.4204 120.593 52.5069C120.813 52.5935 121.002 52.7106 121.161 52.8583C121.314 53.006 121.432 53.1791 121.514 53.3777C121.601 53.5763 121.645 53.7876 121.645 54.0117H123.372C123.377 53.5534 123.293 53.1333 123.119 52.7514C122.95 52.3695 122.712 52.041 122.405 51.766C122.098 51.4911 121.729 51.2772 121.299 51.1244C120.874 50.9717 120.411 50.8953 119.909 50.8953C119.275 50.8953 118.717 51.0073 118.236 51.2314C117.76 51.4503 117.36 51.7482 117.038 52.125C116.715 52.5018 116.472 52.9423 116.308 53.4464C116.15 53.9505 116.07 54.4852 116.07 55.0504V55.3178C116.07 55.8881 116.152 56.4253 116.316 56.9294C116.48 57.4284 116.72 57.8664 117.038 58.2432C117.36 58.62 117.76 58.9204 118.236 59.1445C118.717 59.3634 119.277 59.4729 119.917 59.4729C120.378 59.4729 120.815 59.3991 121.23 59.2514C121.65 59.0986 122.021 58.8924 122.343 58.6327C122.661 58.373 122.911 58.0675 123.096 57.7161C123.285 57.3597 123.377 56.9803 123.372 56.5781H121.645C121.645 56.7868 121.596 56.9778 121.499 57.1509C121.407 57.324 121.281 57.4743 121.123 57.6016C120.959 57.7289 120.769 57.8282 120.554 57.8995C120.344 57.9656 120.124 57.9987 119.894 57.9987Z" fill="#E6E6E6"/>
<path d="M128.777 56.0358L131.388 59.3125H133.783L130.259 55.0275L133.522 51.0481H131.242L128.647 54.3477H127.488V51.0481H125.653V59.3125H127.488V56.0358H128.777Z" fill="#E6E6E6"/>
<path d="M140.471 59.3125H142.344V59.1827C142.242 58.9688 142.163 58.7142 142.106 58.4188C142.055 58.1184 142.03 57.7823 142.03 57.4106V53.7367C142.03 53.2682 141.943 52.8558 141.769 52.4993C141.595 52.1378 141.354 51.8399 141.047 51.6056C140.74 51.3714 140.374 51.1957 139.949 51.0786C139.529 50.9564 139.076 50.8953 138.59 50.8953C138.047 50.8953 137.564 50.9666 137.139 51.1092C136.719 51.2467 136.363 51.4351 136.072 51.6744C135.78 51.9086 135.557 52.1785 135.404 52.484C135.25 52.7896 135.171 53.1078 135.166 53.4388H137.008C137.008 53.2809 137.036 53.1333 137.093 52.9958C137.154 52.8532 137.246 52.7335 137.369 52.6368C137.492 52.5299 137.646 52.4458 137.83 52.3847C138.019 52.3236 138.239 52.2931 138.49 52.2931C138.767 52.2931 139.01 52.3287 139.219 52.4C139.434 52.4662 139.616 52.563 139.765 52.6903C139.903 52.8176 140.008 52.9678 140.079 53.1409C140.156 53.314 140.195 53.5075 140.195 53.7214V54.279H138.859C138.26 54.279 137.722 54.335 137.246 54.447C136.775 54.559 136.379 54.722 136.056 54.9359C135.708 55.165 135.442 55.4553 135.258 55.8066C135.079 56.1529 134.989 56.5526 134.989 57.0058C134.989 57.3571 135.058 57.6856 135.196 57.9911C135.34 58.2915 135.537 58.5487 135.787 58.7626C136.043 58.9815 136.348 59.1546 136.701 59.2819C137.059 59.4042 137.454 59.4653 137.884 59.4653C138.15 59.4653 138.398 59.4398 138.628 59.3889C138.859 59.338 139.074 59.2667 139.273 59.175C139.473 59.0884 139.652 58.9866 139.811 58.8695C139.975 58.7473 140.12 58.62 140.248 58.4876C140.274 58.6454 140.302 58.7982 140.333 58.9459C140.369 59.0885 140.415 59.2107 140.471 59.3125ZM138.237 57.9987C138.001 57.9987 137.797 57.9707 137.622 57.9147C137.448 57.8536 137.303 57.7721 137.185 57.6703C137.067 57.5685 136.978 57.4463 136.916 57.3037C136.855 57.156 136.824 56.9982 136.824 56.8301C136.824 56.6264 136.86 56.4431 136.931 56.2802C137.008 56.1172 137.123 55.9772 137.277 55.8601C137.451 55.7226 137.684 55.6182 137.976 55.5469C138.267 55.4705 138.613 55.4323 139.012 55.4323H140.195V56.96C140.128 57.0924 140.033 57.2197 139.911 57.3419C139.788 57.4641 139.642 57.5736 139.473 57.6703C139.304 57.7671 139.115 57.846 138.905 57.9071C138.7 57.9682 138.477 57.9987 138.237 57.9987Z" fill="#E6E6E6"/>
<path d="M50.4494 18.9018C50.4494 25.7412 44.876 31.2857 38.0008 31.2857C31.1257 31.2857 25.5523 25.7412 25.5523 18.9018C25.5523 12.0623 31.1257 6.51786 38.0008 6.51786C44.876 6.51786 50.4494 12.0623 50.4494 18.9018Z" fill="#E6E6E6"/>
<path d="M35.3801 48.8839C35.3801 58.6032 27.46 66.4821 17.69 66.4821C7.9201 66.4821 0 58.6032 0 48.8839C0 39.1647 7.9201 31.2857 17.69 31.2857C27.46 31.2857 35.3801 39.1647 35.3801 48.8839Z" fill="#E6E6E6"/>
</svg>
