<svg width="35" height="35" viewBox="0 0 35 35" fill="none" xmlns="http://www.w3.org/2000/svg">
<path fill-rule="evenodd" clip-rule="evenodd" d="M17.5 0C7.83523 0 0 7.83523 0 17.5C0 27.1648 7.83523 35 17.5 35C27.1648 35 35 27.1648 35 17.5C35 7.83523 27.1648 0 17.5 0ZM13.9889 12.2611C13.6991 11.9611 13.5387 11.5592 13.5423 11.1421C13.546 10.725 13.7133 10.3259 14.0082 10.031C14.3032 9.736 14.7022 9.56869 15.1194 9.56506C15.5365 9.56144 15.9384 9.72179 16.2384 10.0116L22.602 16.3752C22.9003 16.6736 23.0678 17.0781 23.0678 17.5C23.0678 17.9219 22.9003 18.3264 22.602 18.6248L16.2384 24.9884C15.9384 25.2782 15.5365 25.4386 15.1194 25.4349C14.7022 25.4313 14.3032 25.264 14.0082 24.969C13.7133 24.6741 13.546 24.275 13.5423 23.8579C13.5387 23.4408 13.6991 23.0389 13.9889 22.7389L19.2277 17.5L13.9889 12.2611Z" fill="#6D11CA"/>
</svg>
